<?xml version="1.0" encoding="UTF-8" standalone="no"?>
<svg width="162px" height="44px" viewBox="0 0 162 44" version="1.1" xmlns="http://www.w3.org/2000/svg" xmlns:xlink="http://www.w3.org/1999/xlink">
    <!-- Generator: Sketch 42 (36781) - http://www.bohemiancoding.com/sketch -->
    <title>Group</title>
    <desc>Created with Sketch.</desc>
    <defs></defs>
    <g id="Page-1" stroke="none" stroke-width="1" fill="none" fill-rule="evenodd">
        <g id="Group">
            <path d="M46.511491,0.663989633 L56.3281291,30.1528182 L66.1145622,0.663989633 L80.0692909,0.663989633 L80.0692909,43.0487224 L69.4371167,43.0487224 L69.4371167,33.1511887 L70.464088,12.8903549 L59.8319138,43.0487224 L52.8243444,43.0487224 L42.1619651,12.8612445 L43.1889365,33.1511887 L43.1889365,43.0487224 L32.5869673,43.0487224 L32.5869673,0.663989633 L46.511491,0.663989633 Z M111.784583,35.1306954 L97.2559589,35.1306954 L94.7187355,43.0487224 L83.3918454,43.0487224 L99.5213369,0.663989633 L109.489,0.663989633 L125.739312,43.0487224 L114.352012,43.0487224 L111.784583,35.1306954 Z M99.7931823,27.2417788 L109.24736,27.2417788 L104.505169,12.5410301 L99.7931823,27.2417788 Z M162,37.8088516 C160.36892,39.555484 157.982745,40.9624722 154.841405,42.0298587 C151.700066,43.0972451 148.256725,43.6309303 144.511282,43.6309303 C138.752158,43.6309303 134.15097,41.932841 130.707578,38.5366115 C127.264186,35.1403819 125.421697,30.414842 125.180056,24.3598499 L125.149851,20.6919403 C125.149851,16.5194297 125.915037,12.8758152 127.445434,9.76098758 C128.97583,6.64615991 131.165674,4.24942815 134.01503,2.5707204 C136.864386,0.892012654 140.161737,0.052671371 143.907181,0.052671371 C149.384389,0.052671371 153.638223,1.26074062 156.66881,3.67691535 C159.699398,6.09309009 161.466375,9.69789109 161.969795,14.4914265 L151.760491,14.4914265 C151.398029,12.1237693 150.612706,10.4353834 149.404498,9.42621805 C148.19629,8.4170527 146.484689,7.91247759 144.269641,7.91247759 C141.611584,7.91247759 139.557662,8.99925475 138.107813,11.1728417 C136.657964,13.3464286 135.922982,16.4515061 135.902845,20.4881675 L135.902845,23.0498822 C135.902845,27.2806138 136.652929,30.4584667 138.153121,32.583536 C139.653312,34.7086054 142.014315,35.7711241 145.236203,35.7711241 C147.994943,35.7711241 150.048866,35.1792187 151.398031,33.9953901 L151.398031,27.4164412 L144.028001,27.4164412 L144.028001,20.4008364 L162,20.4008364 L162,37.8088516 Z" id="MAG" fill="#000000"></path>
            <rect id="Rectangle" fill="#000000" x="0" y="0.709677419" width="24.3" height="42.5806452"></rect>
            <path d="M7.13927557,17.9720262 L3.77386364,17.9720262 L3.77386364,26.9677419 L2.40037287,26.9677419 L2.40037287,17.9720262 L-0.957848011,17.9720262 L-0.957848011,16.8770161 L7.13927557,16.8770161 L7.13927557,17.9720262 Z M16.7393288,26.9677419 L15.351456,26.9677419 L15.351456,22.3035534 L10.0732244,22.3035534 L10.0732244,26.9677419 L8.69254261,26.9677419 L8.69254261,16.8770161 L10.0732244,16.8770161 L10.0732244,21.2154738 L15.351456,21.2154738 L15.351456,16.8770161 L16.7393288,16.8770161 L16.7393288,26.9677419 Z M25.1097124,22.3035534 L20.5721591,22.3035534 L20.5721591,25.8796623 L25.8431996,25.8796623 L25.8431996,26.9677419 L19.1914773,26.9677419 L19.1914773,16.8770161 L25.7712891,16.8770161 L25.7712891,17.9720262 L20.5721591,17.9720262 L20.5721591,21.2154738 L25.1097124,21.2154738 L25.1097124,22.3035534 Z" id="THE" fill="#FFFFFF" transform="translate(12.442676, 21.922379) rotate(-90.000000) translate(-12.442676, -21.922379) "></path>
        </g>
    </g>
</svg>